<svg width="302" height="304" fill="none" xmlns="http://www.w3.org/2000/svg"><path fill-rule="evenodd" clip-rule="evenodd" d="M59.69 193.354c-3.07-7.959-4.655-12.459-6.759-20.446l-15.879-3.469c-7.252-1.497-11.906-8.602-10.383-15.848l11.133-52.97c1.54-7.328 8.797-11.963 16.093-10.28l15.643 3.607c4.918-6.608 7.986-10.143 14.357-15.999L78.64 62.444c-2.384-7.033 1.418-14.66 8.469-16.991l51.498-17.021c6.974-2.306 14.503 1.446 16.862 8.403l5.253 15.626c8.619.98 13.171 1.864 21.022 4.586l10.441-12.236c4.862-5.697 13.455-6.291 19.055-1.317l40.446 35.929c5.527 4.91 6.022 13.371 1.106 18.892l-10.9 12.239c3.305 7.696 4.743 12.208 6.685 20.558l16.049 3.27c7.269 1.481 11.943 8.595 10.418 15.854l-11.096 52.811c-1.523 7.246-8.643 11.876-15.884 10.328l-15.847-3.388c-4.862 6.983-8.025 10.355-14.188 15.732l4.979 15.619c2.22 6.966-1.564 14.424-8.497 16.744l-51.414 17.208c-7.076 2.368-14.721-1.511-16.987-8.62l-4.862-15.253c-8.82-.7-13.115-1.742-20.89-4.365l-10.945 12.252c-4.915 5.502-13.357 5.985-18.867 1.078L50.03 224.303c-5.516-4.912-6.005-13.366-1.093-18.881l10.751-12.068zm109.112 12.615c29.837-9.861 46.029-42.043 36.168-71.879-9.862-29.836-42.043-46.029-71.88-36.167-29.836 9.861-46.029 42.043-36.167 71.879 9.862 29.836 42.043 46.029 71.879 36.167z" fill="#6F759D"/></svg>