<svg width="160" height="161" fill="none" xmlns="http://www.w3.org/2000/svg"><path fill-rule="evenodd" clip-rule="evenodd" d="M14.777 87.359c-.425-5.562-.43-8.654.084-14.112L5.34 67.76a8.842 8.842 0 01-3.23-12.102l17.98-30.942a8.842 8.842 0 0112.236-3.114l9.07 5.51c4.459-3.128 7.118-4.71 12.332-7.064l-.082-10.824A8.842 8.842 0 0162.49.315h35.859a8.84 8.84 0 018.841 8.774l.083 10.751c5.208 2.404 7.854 4.051 12.218 7.389l9.093-5.515a8.841 8.841 0 0112.234 3.127l17.935 30.945a8.842 8.842 0 01-3.225 12.09l-9.382 5.42c.478 5.517.445 8.648-.069 14.293l9.396 5.382a8.842 8.842 0 013.251 12.114L140.8 135.934a8.842 8.842 0 01-12.114 3.188l-9.245-5.415c-4.501 3.375-7.186 4.835-12.17 6.932l-.115 10.838a8.843 8.843 0 01-8.809 8.748l-35.844.134a8.841 8.841 0 01-8.875-8.935l.113-10.584c-5.392-2.27-7.872-3.814-12.208-7.074l-9.413 5.42a8.842 8.842 0 01-12.067-3.238L2.106 104.894a8.842 8.842 0 013.231-12.08l9.44-5.455zm65.69 30.669c20.776 0 37.617-16.842 37.617-37.618 0-20.775-16.841-37.617-37.617-37.617-20.776 0-37.617 16.842-37.617 37.617 0 20.776 16.841 37.618 37.617 37.618z" fill="#444760"/></svg>