<svg width="111" height="111" fill="none" xmlns="http://www.w3.org/2000/svg"><path fill-rule="evenodd" clip-rule="evenodd" d="M10.193 60.539c-.293-3.831-.297-5.96.057-9.72l-6.556-3.778a6.09 6.09 0 01-2.225-8.336l12.384-21.31a6.09 6.09 0 018.427-2.146l6.247 3.795c3.07-2.154 4.902-3.244 8.494-4.865l-.057-7.455a6.09 6.09 0 016.09-6.136h24.698a6.09 6.09 0 016.09 6.043l.056 7.405c3.587 1.655 5.41 2.79 8.415 5.089l6.263-3.799a6.09 6.09 0 018.426 2.154l12.353 21.314a6.09 6.09 0 01-2.222 8.326l-6.461 3.734c.329 3.8.306 5.955-.048 9.843l6.472 3.707a6.09 6.09 0 012.238 8.344L96.99 93.995a6.09 6.09 0 01-8.343 2.195l-6.368-3.73c-3.1 2.325-4.949 3.331-8.382 4.776l-.08 7.464a6.09 6.09 0 01-6.066 6.025l-24.688.093a6.091 6.091 0 01-6.112-6.155l.078-7.289c-3.714-1.563-5.422-2.627-8.409-4.873l-6.482 3.733a6.09 6.09 0 01-8.312-2.23L1.466 72.616a6.09 6.09 0 012.225-8.32l6.502-3.757zm45.243 21.123c14.31 0 25.909-11.6 25.909-25.909s-11.6-25.909-25.909-25.909-25.909 11.6-25.909 25.91c0 14.308 11.6 25.908 25.91 25.908z" fill="#393B4F"/></svg>