<svg width="413" height="442" fill="none" xmlns="http://www.w3.org/2000/svg"><style>@keyframes rotation{0%{transform:rotate(0deg)}50%{transform:rotate(360deg)}}@keyframes ball-big{0%{transform:rotate(0deg)}50%{transform:rotate(360deg)}}.ball__big{animation-name:ball-big;animation-duration:10s;animation-iteration-count:infinite;transition-timing-function:linear;transform-origin:50% 50%;transition-timing-function:cubic-bezier(.68,-.55,.265,1.55);transform-box:fill-box}</style><path d="M62.095 194.953l.21-.235-.122-.291c-3.246-7.77-4.714-12.186-6.562-20.246l-.072-.313-.314-.065-16.293-3.362c-6.989-1.442-11.475-8.288-10.008-15.271l11.14-53.029c1.483-7.062 8.475-11.53 15.507-9.909l15.659 3.61.318.074.195-.262c4.907-6.594 7.957-10.11 14.308-15.949l.24-.22-.104-.308-5.263-15.522c-2.298-6.777 1.365-14.128 8.16-16.374l51.551-17.046c6.721-2.222 13.976 1.392 16.25 8.096l5.23 15.417.102.3.315.036c8.59.976 13.142 2.077 20.969 4.79l.322.112.222-.26 10.451-12.25c4.684-5.491 12.965-6.065 18.362-1.272l40.494 35.963c5.327 4.73 5.805 12.885 1.068 18.206l-10.91 12.253-.211.238.125.292c3.296 7.674 4.728 12.162 6.667 20.495l.073.313.314.064 16.067 3.272c7.005 1.426 11.51 8.281 10.041 15.277l-11.102 52.868c-1.466 6.983-8.328 11.446-15.306 9.955l-15.864-3.39-.325-.07-.19.273c-4.841 6.955-7.979 10.3-14.12 15.66l-.247.216.1.313 4.986 15.635c2.14 6.713-1.506 13.9-8.187 16.137l-51.467 17.232c-6.818 2.283-14.186-1.455-16.371-8.305l-4.868-15.268-.102-.32-.335-.027c-8.784-.696-13.042-1.729-20.793-4.343l-.313-.105-.22.246-10.955 12.266c-4.736 5.303-12.872 5.769-18.182 1.041l-40.563-36.112c-5.316-4.734-5.788-12.88-1.055-18.196l10.978-12.33zm108.798 13.006c30.13-9.962 46.478-42.462 36.516-72.592-9.962-30.129-42.463-46.478-72.592-36.515-30.13 9.962-46.478 42.463-36.516 72.592 9.962 30.129 42.463 46.478 72.592 36.515z" fill="#fff" fill-opacity=".15" stroke="#fff" style="animation-name:rotation;animation-duration:10s;animation-iteration-count:infinite;transition-timing-function:linear;transform-origin:50% 50%;transform-box:fill-box"/><path class="ball__big" d="M267.608 326.807l.191-.111-.017-.219c-.424-5.544-.429-8.617.083-14.053l.021-.224-.195-.112-9.519-5.486a8.492 8.492 0 01-3.102-11.624l17.979-30.941c2.389-4.111 7.688-5.46 11.751-2.991l9.071 5.51.195.119.188-.132c4.442-3.116 7.083-4.688 12.275-7.031l.207-.094-.001-.228-.082-10.824a8.492 8.492 0 018.491-8.556h35.86a8.491 8.491 0 018.491 8.426l.083 10.752.002.222.201.093c5.183 2.392 7.807 4.025 12.151 7.348l.19.146.205-.124 9.093-5.515a8.492 8.492 0 0111.75 3.003l17.935 30.946a8.491 8.491 0 01-3.098 11.61l-9.381 5.421-.193.112.019.222c.476 5.494.443 8.604-.069 14.23l-.02.224.195.111 9.396 5.383a8.492 8.492 0 013.122 11.634l-17.923 30.849a8.492 8.492 0 01-11.634 3.062l-9.245-5.415-.201-.118-.186.14c-4.476 3.356-7.136 4.802-12.096 6.889l-.212.09-.003.229-.115 10.838a8.49 8.49 0 01-8.459 8.401l-35.845.135a8.491 8.491 0 01-8.523-8.582l.112-10.583.003-.235-.217-.091c-5.362-2.258-7.816-3.787-12.133-7.032l-.185-.139-.2.115-9.413 5.42a8.49 8.49 0 01-11.59-3.11l-17.947-31.054a8.492 8.492 0 013.104-11.601l9.44-5.455zm65.515 30.716c20.968 0 37.967-16.999 37.967-37.968 0-20.969-16.999-37.967-37.967-37.967-20.969 0-37.968 16.998-37.968 37.967 0 20.969 16.999 37.968 37.968 37.968z" fill="#fff" fill-opacity=".2" stroke="#fff" stroke-width=".7"/><path class="ball__big" d="M102.21 391.122l.136-.078-.012-.157c-.292-3.818-.295-5.934.058-9.677l.015-.16-.139-.08-6.557-3.779a5.84 5.84 0 01-2.133-7.993l12.383-21.311a5.84 5.84 0 018.081-2.057l6.248 3.795.139.085.134-.094c3.059-2.146 4.877-3.228 8.453-4.842l.148-.067-.001-.163-.056-7.455a5.84 5.84 0 015.839-5.884h24.698a5.84 5.84 0 015.839 5.795l.057 7.405.002.158.144.067c3.568 1.647 5.376 2.772 8.367 5.06l.136.104.146-.089 6.262-3.798a5.84 5.84 0 018.081 2.065l12.353 21.314a5.84 5.84 0 01-2.131 7.984l-6.461 3.734-.138.08.014.158c.328 3.784.305 5.925-.048 9.8l-.014.16.139.079 6.472 3.707a5.84 5.84 0 012.146 8.001l-12.344 21.247a5.839 5.839 0 01-8 2.106l-6.368-3.73-.143-.084-.133.1c-3.082 2.311-4.913 3.307-8.33 4.744l-.151.064-.002.164-.079 7.464a5.84 5.84 0 01-5.817 5.778l-24.688.093a5.841 5.841 0 01-5.862-5.902l.078-7.289.002-.168-.155-.065c-3.692-1.555-5.382-2.608-8.355-4.842l-.132-.1-.143.083-6.483 3.733a5.84 5.84 0 01-7.97-2.139l-12.36-21.388a5.84 5.84 0 012.133-7.978l6.502-3.758zm45.118 21.157c14.448 0 26.159-11.712 26.159-26.159s-11.711-26.158-26.159-26.158c-14.447 0-26.158 11.711-26.158 26.158 0 14.447 11.711 26.159 26.158 26.159z" fill="#fff" fill-opacity=".25" stroke="#fff" stroke-width=".5"/></svg>