<svg width="413" height="442" fill="none" xmlns="http://www.w3.org/2000/svg"><path d="M61.77 195.072l-.204.228-10.75 12.067c-4.73 5.31-4.258 13.448 1.052 18.176l40.514 36.079c5.304 4.723 13.431 4.259 18.163-1.038l10.944-12.252.22-.246.313.106c7.742 2.612 11.996 3.644 20.77 4.34l.335.027.102.32 4.862 15.252c2.181 6.843 9.54 10.578 16.351 8.298l51.414-17.208c6.674-2.233 10.317-9.412 8.18-16.117l-4.979-15.62-.1-.312.247-.216c6.136-5.354 9.27-8.696 14.107-15.642l.189-.273.325.07 15.848 3.388c6.97 1.49 13.824-2.967 15.29-9.942l11.096-52.81c1.468-6.988-3.032-13.836-10.029-15.262l-16.049-3.27-.314-.064-.073-.312c-1.936-8.324-3.365-12.808-6.657-20.474l-.126-.293.212-.237 10.899-12.24c4.733-5.314 4.256-13.46-1.064-18.185l-40.446-35.93c-5.391-4.788-13.662-4.216-18.343 1.268l-10.441 12.236-.221.26-.323-.112c-7.808-2.708-12.323-3.586-20.914-4.562l-.316-.036-.102-.302-5.253-15.624v-.002m-94.73 156.465L80.144 64.057c-2.384-7.033 1.418-14.66 8.469-16.99l51.498-17.022c6.974-2.305 14.503 1.446 16.862 8.403l-.474.16m-94.73 156.464l-.11-.285c-3.065-7.949-4.643-12.43-6.74-20.393l-.078-.295-.299-.066-15.879-3.469-.006-.001c-6.98-1.441-11.461-8.28-9.995-15.256l11.134-52.97c1.483-7.054 8.468-11.516 15.491-9.896l15.642 3.608.319.073.195-.262c4.902-6.586 7.949-10.097 14.294-15.93l.24-.22-.105-.308-5.255-15.506c-2.294-6.77 1.366-14.112 8.152-16.355l51.499-17.021c6.713-2.22 13.96 1.392 16.231 8.087m-94.73 156.465L156.5 38.607m13.964 169.45c30.099-9.948 46.434-42.412 36.486-72.511-9.949-30.098-42.413-46.433-72.511-36.485-30.099 9.948-46.434 42.413-36.486 72.511 9.949 30.099 42.413 46.434 72.511 36.485z" fill="#fff" fill-opacity=".15" stroke="#fff"/><path d="M267.608 326.807l.19-.111-.017-.219c-.424-5.544-.429-8.617.083-14.053l.022-.224-.195-.112-9.52-5.486a8.493 8.493 0 01-3.102-11.624l17.98-30.941a8.491 8.491 0 0111.751-2.991l9.07 5.51.196.119.187-.132c4.443-3.116 7.083-4.688 12.275-7.031l.208-.094-.002-.228-.082-10.824a8.492 8.492 0 018.492-8.556h35.859a8.492 8.492 0 018.492 8.426l.082 10.752.002.222.202.093c5.182 2.392 7.807 4.025 12.151 7.348l.19.146.204-.124 9.093-5.515c4.067-2.466 9.366-1.112 11.75 3.003l17.936 30.946a8.492 8.492 0 01-3.098 11.61l-9.382 5.421-.192.112.019.222c.476 5.494.442 8.604-.069 14.23l-.021.224.195.111 9.397 5.383a8.491 8.491 0 013.121 11.634l-17.923 30.849a8.492 8.492 0 01-11.634 3.062l-9.245-5.415-.201-.118-.186.14c-4.475 3.356-7.135 4.802-12.096 6.889l-.212.09-.002.229-.115 10.838a8.492 8.492 0 01-8.46 8.401l-35.845.135a8.492 8.492 0 01-8.523-8.582l.113-10.583.002-.235-.216-.091c-5.362-2.258-7.817-3.787-12.134-7.032l-.185-.139-.2.115-9.412 5.42a8.49 8.49 0 01-11.59-3.11l-17.947-31.054a8.492 8.492 0 013.103-11.601l9.441-5.455zm65.514 30.716c20.969 0 37.967-16.999 37.967-37.968 0-20.969-16.998-37.967-37.967-37.967-20.969 0-37.967 16.998-37.967 37.967 0 20.969 16.998 37.968 37.967 37.968z" fill="#fff" fill-opacity=".2" stroke="#fff" stroke-width=".7"/><path d="M102.21 391.122l.136-.078-.012-.157c-.292-3.818-.295-5.934.057-9.677l.015-.16-.139-.08-6.556-3.779a5.839 5.839 0 01-2.133-7.993l12.383-21.311a5.84 5.84 0 018.081-2.057l6.247 3.795.14.085.134-.094c3.059-2.146 4.877-3.228 8.453-4.842l.148-.067-.001-.163-.057-7.455a5.841 5.841 0 015.84-5.884h24.698a5.84 5.84 0 015.839 5.795l.057 7.405.001.158.144.067c3.569 1.647 5.376 2.772 8.368 5.06l.135.104.146-.089 6.263-3.798a5.84 5.84 0 018.081 2.065l12.353 21.314a5.84 5.84 0 01-2.131 7.984l-6.461 3.734-.138.08.014.158c.327 3.784.305 5.925-.048 9.8l-.014.16.139.079 6.472 3.707a5.84 5.84 0 012.146 8.001l-12.344 21.247a5.84 5.84 0 01-8.001 2.106l-6.367-3.73-.143-.084-.133.1c-3.082 2.311-4.914 3.307-8.33 4.744l-.151.064-.002.164-.079 7.464a5.84 5.84 0 01-5.818 5.778l-24.688.093a5.84 5.84 0 01-5.861-5.902l.078-7.289.001-.168-.154-.065c-3.692-1.555-5.382-2.608-8.355-4.842l-.132-.1-.143.083-6.483 3.733a5.84 5.84 0 01-7.97-2.139l-12.361-21.388a5.84 5.84 0 012.134-7.978l6.502-3.758zm45.118 21.157c14.447 0 26.159-11.712 26.159-26.159s-11.712-26.158-26.159-26.158-26.158 11.711-26.158 26.158c0 14.447 11.711 26.159 26.158 26.159z" fill="#fff" fill-opacity=".25" stroke="#fff" stroke-width=".5"/></svg>