<svg width="413" height="442" fill="none" xmlns="http://www.w3.org/2000/svg"><style>@keyframes rotation{0%{transform:rotate(0deg)}50%{transform:rotate(360deg)}}@keyframes ball-big{0%{transform:rotate(0deg)}50%{transform:rotate(360deg)}}.ball__big{animation-name:ball-big;animation-duration:10s;animation-iteration-count:infinite;transition-timing-function:linear;transform-origin:50% 50%;transition-timing-function:cubic-bezier(.68,-.55,.265,1.55);transform-box:fill-box}</style><path fill-rule="evenodd" clip-rule="evenodd" d="M61.193 194.967c-3.07-7.959-4.654-12.459-6.758-20.445l-15.879-3.47c-7.251-1.497-11.906-8.601-10.383-15.848l11.134-52.97c1.54-7.328 8.796-11.963 16.093-10.28l15.642 3.608c4.918-6.61 7.986-10.144 14.357-16l-5.255-15.505c-2.384-7.033 1.418-14.66 8.469-16.99l51.498-17.022c6.974-2.305 14.503 1.446 16.862 8.403l5.253 15.626c8.619.98 13.171 1.864 21.022 4.586l10.441-12.235c4.862-5.698 13.455-6.292 19.055-1.318l40.446 35.929c5.527 4.91 6.022 13.372 1.106 18.892l-10.9 12.239c3.305 7.696 4.743 12.208 6.685 20.558l16.049 3.27c7.269 1.481 11.943 8.595 10.418 15.854l-11.096 52.811c-1.523 7.246-8.643 11.876-15.884 10.328l-15.847-3.388c-4.862 6.983-8.025 10.355-14.188 15.733l4.979 15.619c2.22 6.965-1.564 14.423-8.497 16.743l-51.414 17.208c-7.076 2.369-14.721-1.511-16.987-8.62l-4.861-15.252c-8.821-.701-13.116-1.742-20.891-4.366l-10.945 12.252c-4.915 5.502-13.357 5.985-18.867 1.078l-40.515-36.079c-5.516-4.912-6.005-13.365-1.093-18.881l10.751-12.068zm109.113 12.616c29.837-9.862 46.029-42.043 36.168-71.88-9.862-29.836-42.043-46.029-71.88-36.167-29.836 9.861-46.028 42.043-36.167 71.879 9.862 29.837 42.043 46.029 71.879 36.168z" fill="#6F759D" style="animation-name:rotation;animation-duration:10s;animation-iteration-count:infinite;transition-timing-function:linear;transform-origin:50% 50%;transform-box:fill-box"/><path class="ball__big" fill-rule="evenodd" clip-rule="evenodd" d="M267.432 326.504c-.425-5.563-.43-8.655.084-14.113l-9.519-5.486a8.841 8.841 0 01-3.23-12.103l17.979-30.941c2.488-4.28 8.004-5.685 12.236-3.114l9.07 5.51c4.459-3.128 7.118-4.711 12.332-7.064l-.082-10.824a8.842 8.842 0 018.842-8.909h35.859a8.842 8.842 0 018.842 8.774l.082 10.751c5.208 2.403 7.854 4.051 12.218 7.388l9.093-5.514a8.841 8.841 0 0112.234 3.126l17.935 30.946a8.842 8.842 0 01-3.225 12.089l-9.382 5.421c.478 5.517.445 8.648-.069 14.293l9.396 5.382a8.842 8.842 0 013.251 12.114l-17.923 30.849a8.842 8.842 0 01-12.114 3.188l-9.245-5.415c-4.501 3.375-7.186 4.835-12.17 6.932l-.115 10.838a8.842 8.842 0 01-8.808 8.747l-35.845.135c-4.933.019-8.927-4.003-8.875-8.936l.113-10.583c-5.392-2.27-7.872-3.815-12.208-7.075l-9.413 5.421a8.841 8.841 0 01-12.067-3.238l-17.947-31.055a8.84 8.84 0 013.231-12.079l9.44-5.455zm65.69 30.669c20.776 0 37.617-16.842 37.617-37.618 0-20.775-16.841-37.617-37.617-37.617-20.775 0-37.617 16.842-37.617 37.617 0 20.776 16.842 37.618 37.617 37.618z" fill="#444760"/><path class="ball__big" fill-rule="evenodd" clip-rule="evenodd" d="M102.085 390.906c-.293-3.831-.297-5.961.057-9.72l-6.556-3.778a6.09 6.09 0 01-2.224-8.336l12.383-21.311a6.09 6.09 0 018.427-2.145l6.247 3.795c3.071-2.154 4.902-3.244 8.494-4.865l-.057-7.455a6.09 6.09 0 016.09-6.136h24.698a6.09 6.09 0 016.089 6.043l.057 7.405c3.587 1.655 5.409 2.79 8.415 5.089l6.263-3.798a6.088 6.088 0 018.426 2.153l12.353 21.314a6.09 6.09 0 01-2.222 8.326l-6.461 3.734c.329 3.799.306 5.955-.048 9.843l6.472 3.708a6.089 6.089 0 012.238 8.343l-12.344 21.247a6.09 6.09 0 01-8.343 2.195l-6.367-3.729c-3.101 2.324-4.95 3.33-8.383 4.774l-.079 7.465a6.09 6.09 0 01-6.067 6.025l-24.688.093a6.091 6.091 0 01-6.112-6.155l.078-7.289c-3.714-1.563-5.422-2.627-8.409-4.873l-6.482 3.733a6.09 6.09 0 01-8.312-2.23l-12.36-21.388a6.09 6.09 0 012.225-8.32l6.502-3.757zm45.243 21.123c14.309 0 25.909-11.6 25.909-25.909s-11.6-25.908-25.909-25.908-25.908 11.599-25.908 25.908c0 14.309 11.599 25.909 25.908 25.909z" fill="#393B4F"/></svg>