<svg width="413" height="442" fill="none" xmlns="http://www.w3.org/2000/svg"><path d="M62.11 194.867l-.203.228-10.751 12.068c-4.729 5.309-4.258 13.447 1.052 18.175l40.515 36.079c5.304 4.723 13.43 4.259 18.162-1.038l10.945-12.252.219-.246.313.106c7.743 2.612 11.996 3.644 20.77 4.34l.335.027.102.32 4.862 15.252c2.181 6.843 9.541 10.578 16.351 8.298l51.414-17.208c6.674-2.233 10.317-9.412 8.18-16.117l-4.979-15.619-.1-.313.248-.216c6.135-5.354 9.27-8.695 14.106-15.642l.19-.272.325.069 15.847 3.388c6.97 1.49 13.824-2.966 15.29-9.942l11.096-52.81c1.468-6.988-3.031-13.836-10.028-15.262l-16.049-3.269-.315-.064-.073-.313c-1.936-8.324-3.365-12.808-6.657-20.474l-.125-.292.211-.238 10.9-12.239c4.732-5.314 4.255-13.46-1.065-18.186l-40.446-35.929c-5.39-4.788-13.662-4.216-18.342 1.268L183.969 58.78l-.222.26-.323-.112c-7.808-2.707-12.322-3.585-20.914-4.562l-.316-.036-.101-.301-5.253-15.625-.001-.001m-94.73 156.464L80.485 63.852c-2.383-7.032 1.419-14.66 8.469-16.99L140.45 29.84c6.975-2.305 14.503 1.447 16.862 8.403l-.474.16m-94.73 156.464l-.109-.284c-3.066-7.949-4.644-12.431-6.74-20.393l-.079-.296-.298-.066-15.88-3.469-.005-.001c-6.98-1.441-11.462-8.28-9.996-15.256l11.134-52.97c1.483-7.054 8.468-11.516 15.492-9.896l15.642 3.608.318.073.195-.262c4.902-6.586 7.95-10.097 14.295-15.93l.24-.22-.105-.308-5.255-15.506c-2.295-6.77 1.365-14.112 8.152-16.355l51.498-17.021c6.713-2.22 13.96 1.392 16.231 8.088m-94.73 156.464l94.73-156.464m13.965 169.45c30.098-9.949 46.433-42.413 36.485-72.511-9.948-30.099-42.413-46.434-72.511-36.486-30.099 9.949-46.434 42.413-36.485 72.511 9.948 30.099 42.412 46.434 72.511 36.486z" fill="#fff" fill-opacity=".15" stroke="#fff"/><path d="M267.608 326.807l.191-.111-.017-.219c-.424-5.545-.429-8.617.083-14.053l.021-.224-.195-.112-9.519-5.486a8.492 8.492 0 01-3.102-11.624l17.979-30.941c2.389-4.111 7.688-5.46 11.751-2.991l9.071 5.51.195.119.188-.132c4.442-3.117 7.083-4.688 12.275-7.032l.207-.093-.001-.228-.082-10.824a8.492 8.492 0 018.491-8.556h35.86a8.491 8.491 0 018.491 8.426l.083 10.752.002.222.201.093c5.183 2.392 7.807 4.025 12.151 7.348l.19.145.205-.123 9.093-5.515a8.492 8.492 0 0111.75 3.003l17.935 30.946a8.491 8.491 0 01-3.098 11.61l-9.381 5.421-.193.112.019.222c.476 5.494.443 8.604-.069 14.23l-.02.224.195.111 9.396 5.383a8.492 8.492 0 013.122 11.634l-17.923 30.849a8.49 8.49 0 01-11.634 3.061l-9.245-5.414-.201-.118-.186.14c-4.476 3.356-7.136 4.802-12.096 6.889l-.212.089-.003.23-.115 10.838a8.49 8.49 0 01-8.459 8.401l-35.845.135a8.491 8.491 0 01-8.523-8.582l.112-10.583.003-.235-.217-.092c-5.362-2.257-7.816-3.786-12.133-7.031l-.185-.139-.2.115-9.413 5.42a8.492 8.492 0 01-11.59-3.11l-17.947-31.054a8.492 8.492 0 013.104-11.601l9.44-5.455zm65.515 30.715c20.968 0 37.967-16.998 37.967-37.967 0-20.969-16.999-37.967-37.967-37.967-20.969 0-37.968 16.998-37.968 37.967 0 20.969 16.999 37.967 37.968 37.967z" fill="#fff" fill-opacity=".2" stroke="#fff" stroke-width=".7"/><path d="M102.21 391.122l.136-.078-.012-.157c-.292-3.818-.295-5.934.058-9.677l.015-.16-.139-.08-6.557-3.779a5.84 5.84 0 01-2.133-7.993l12.383-21.311a5.84 5.84 0 018.081-2.057l6.248 3.795.139.085.134-.094c3.059-2.146 4.877-3.228 8.453-4.842l.148-.067-.001-.163-.056-7.455a5.84 5.84 0 015.839-5.884h24.698a5.84 5.84 0 015.839 5.795l.057 7.405.002.158.144.067c3.568 1.647 5.376 2.772 8.367 5.06l.136.104.146-.089 6.262-3.798a5.84 5.84 0 018.081 2.065l12.353 21.314a5.84 5.84 0 01-2.131 7.984l-6.461 3.734-.138.08.014.158c.328 3.784.305 5.925-.048 9.8l-.014.159.139.08 6.472 3.707a5.84 5.84 0 012.146 8.001l-12.344 21.247a5.839 5.839 0 01-8 2.106l-6.368-3.73-.143-.084-.133.1c-3.082 2.311-4.913 3.307-8.33 4.744l-.151.064-.002.164-.079 7.464a5.84 5.84 0 01-5.817 5.778l-24.688.093a5.841 5.841 0 01-5.862-5.902l.078-7.289.002-.168-.155-.065c-3.692-1.555-5.382-2.608-8.355-4.843l-.132-.099-.143.083-6.483 3.733a5.84 5.84 0 01-7.97-2.139l-12.36-21.388a5.84 5.84 0 012.133-7.978l6.502-3.758zm45.118 21.157c14.448 0 26.159-11.712 26.159-26.159s-11.711-26.159-26.159-26.159c-14.447 0-26.158 11.712-26.158 26.159s11.711 26.159 26.158 26.159z" fill="#fff" fill-opacity=".25" stroke="#fff" stroke-width=".5"/></svg>