<svg width="413" height="441" fill="none" xmlns="http://www.w3.org/2000/svg"><style>@keyframes rotation{0%{transform:rotate(0deg)}50%{transform:rotate(360deg)}}@keyframes ball-big{0%{transform:rotate(0deg)}50%{transform:rotate(360deg)}}.ball__big{animation-name:ball-big;animation-duration:10s;animation-iteration-count:infinite;transition-timing-function:linear;transform-origin:50% 50%;transition-timing-function:cubic-bezier(.68,-.55,.265,1.55);transform-box:fill-box}</style><path d="M61.32 194.873l.15-.169-.081-.212c-3.067-7.951-4.647-12.437-6.745-20.406l-.058-.22-.222-.048-15.88-3.47-.004-.001c-7.05-1.455-11.575-8.362-10.095-15.408l11.134-52.97c1.498-7.124 8.553-11.63 15.646-9.994l15.642 3.607.237.055.145-.195c4.906-6.592 7.958-10.11 14.31-15.947l.178-.164-.077-.229-5.255-15.506c-2.318-6.837 1.379-14.253 8.233-16.518l51.498-17.022c6.781-2.24 14.101 1.407 16.394 8.17l5.253 15.625.076.224.235.027c8.598.977 13.122 1.857 20.941 4.568l.24.083.165-.193 10.441-12.235c4.727-5.54 13.081-6.117 18.525-1.281l40.446 35.928c5.374 4.774 5.855 13 1.075 18.368l-10.899 12.239-.157.177.093.217c3.295 7.673 4.727 12.164 6.664 20.495l.054.233.234.047 16.049 3.27c7.067 1.44 11.612 8.356 10.129 15.414l-11.096 52.81c-1.481 7.045-8.403 11.546-15.443 10.041l-15.847-3.388-.242-.051-.141.202c-4.843 6.956-7.985 10.305-14.127 15.665l-.184.161.074.232 4.979 15.619c2.159 6.772-1.521 14.023-8.261 16.279l-51.414 17.208c-6.879 2.302-14.311-1.47-16.515-8.381l-4.861-15.252-.076-.238-.249-.02c-8.786-.698-13.05-1.732-20.801-4.347l-.232-.078-.164.183-10.945 12.252c-4.778 5.349-12.986 5.818-18.343 1.048l-40.515-36.079c-5.362-4.776-5.838-12.995-1.063-18.357l10.752-12.068zm108.952 12.721c30.031-9.926 46.33-42.317 36.404-72.349-9.926-30.031-42.318-46.329-72.349-36.403-30.031 9.926-46.33 42.318-36.403 72.349 9.925 30.031 42.317 46.329 72.348 36.403z" fill="#6F759D" stroke="#fff" stroke-width=".743" style="animation-name:rotation;animation-duration:10s;animation-iteration-count:infinite;transition-timing-function:linear;transform-origin:50% 50%;transform-box:fill-box"/><path class="ball__big" fill-rule="evenodd" clip-rule="evenodd" d="M267.282 326.162c-.426-5.562-.431-8.654.083-14.112l-9.519-5.486a8.841 8.841 0 01-3.23-12.103l17.979-30.941c2.488-4.281 8.005-5.685 12.236-3.115l9.07 5.511c4.459-3.128 7.118-4.711 12.332-7.065l-.081-10.824a8.841 8.841 0 018.841-8.908h35.859a8.842 8.842 0 018.842 8.773l.083 10.752c5.207 2.403 7.853 4.051 12.217 7.388l9.093-5.514a8.841 8.841 0 0112.234 3.126l17.936 30.946a8.843 8.843 0 01-3.226 12.089l-9.381 5.421c.477 5.517.444 8.647-.07 14.292l9.397 5.383a8.842 8.842 0 013.25 12.114l-17.923 30.849a8.842 8.842 0 01-12.114 3.187l-9.245-5.415c-4.501 3.375-7.186 4.836-12.17 6.933l-.115 10.838a8.842 8.842 0 01-8.808 8.747l-35.845.135a8.843 8.843 0 01-8.875-8.936l.113-10.583c-5.392-2.27-7.872-3.815-12.208-7.075l-9.413 5.42a8.84 8.84 0 01-12.067-3.238l-17.947-31.054a8.84 8.84 0 013.231-12.079l9.441-5.456zm65.689 30.669c20.776 0 37.618-16.842 37.618-37.617 0-20.776-16.842-37.617-37.618-37.617-20.775 0-37.617 16.841-37.617 37.617 0 20.775 16.842 37.617 37.617 37.617z" fill="#444760"/><path class="ball__big" fill-rule="evenodd" clip-rule="evenodd" d="M101.934 390.565c-.293-3.831-.297-5.961.058-9.72l-6.557-3.779a6.089 6.089 0 01-2.224-8.335l12.383-21.311a6.09 6.09 0 018.427-2.145l6.247 3.795c3.071-2.154 4.903-3.244 8.494-4.865l-.056-7.455a6.09 6.09 0 016.089-6.136h24.698a6.09 6.09 0 016.089 6.043l.057 7.405c3.587 1.655 5.41 2.79 8.415 5.088l6.263-3.798a6.09 6.09 0 018.426 2.154l12.353 21.313a6.089 6.089 0 01-2.222 8.326l-6.461 3.735c.329 3.799.306 5.955-.048 9.843l6.472 3.707a6.09 6.09 0 012.238 8.344l-12.344 21.247a6.09 6.09 0 01-8.343 2.195l-6.367-3.729c-3.1 2.324-4.95 3.33-8.383 4.774l-.079 7.465a6.09 6.09 0 01-6.067 6.025l-24.688.092a6.09 6.09 0 01-6.112-6.154l.078-7.289c-3.714-1.564-5.422-2.628-8.408-4.873l-6.483 3.733a6.09 6.09 0 01-8.312-2.23l-12.36-21.388a6.09 6.09 0 012.225-8.32l6.502-3.757zm45.243 21.123c14.309 0 25.909-11.6 25.909-25.909s-11.6-25.909-25.909-25.909-25.908 11.6-25.908 25.909 11.599 25.909 25.908 25.909z" fill="#393B4F"/></svg>